<?xml version="1.0" encoding="UTF-8" standalone="no"?>
<!-- Created with Inkscape (http://www.inkscape.org/) -->

<svg
   width="139.43401mm"
   height="65.144997mm"
   viewBox="0 0 139.43401 65.144997"
   version="1.1"
   id="svg5"
   xml:space="preserve"
   inkscape:version="1.2.1 (0b8a7e5fb6, 2022-09-14, custom)"
   sodipodi:docname="daviplata"
   xmlns:inkscape="http://www.inkscape.org/namespaces/inkscape"
   xmlns:sodipodi="http://sodipodi.sourceforge.net/DTD/sodipodi-0.dtd"
   xmlns="http://www.w3.org/2000/svg"
   xmlns:svg="http://www.w3.org/2000/svg"><sodipodi:namedview
     id="namedview7"
     pagecolor="#ffffff"
     bordercolor="#000000"
     borderopacity="0.25"
     inkscape:showpageshadow="2"
     inkscape:pageopacity="0.0"
     inkscape:pagecheckerboard="0"
     inkscape:deskcolor="#d1d1d1"
     inkscape:document-units="mm"
     showgrid="false"
     inkscape:zoom="0.42404602"
     inkscape:cx="-83.717329"
     inkscape:cy="562.43896"
     inkscape:window-width="1366"
     inkscape:window-height="704"
     inkscape:window-x="0"
     inkscape:window-y="0"
     inkscape:window-maximized="1"
     inkscape:current-layer="layer1" /><defs
     id="defs2" /><g
     inkscape:label="Capa 1"
     inkscape:groupmode="layer"
     id="layer1"><path
       style="fill:#000000;stroke-width:0.110868"
       d="m 98.261315,65.123345 c -2.60959,-0.26629 -4.4958,-0.56849 -6.18663,-0.99121 l -1.08669,-0.27167 -1.23026,0.22152 c -2.09911,0.37798 -4.47211,0.50763 -6.42618,0.3511 -0.93527,-0.0749 -2.17444,-0.22898 -2.75373,-0.34237 -0.57929,-0.11339 -1.09067,-0.18355 -1.1364,-0.15591 -0.0457,0.0276 -0.0832,0.006 -0.0832,-0.0487 0,-0.0544 -0.0624,-0.10579 -0.13859,-0.11418 -1.26242,-0.1389 -4.05766,-1.32856 -5.79286,-2.46544 -1.7822,-1.16767 -3.35395,-2.65772 -4.47434,-4.24175 -0.64626,-0.9137 -1.60616,-2.92533 -1.8886,-3.95787 -0.51202,-1.87185 -0.52114,-4.12365 -0.024,-5.91661 0.24927,-0.89894 0.47269,-1.18125 0.87682,-1.10797 0.65381,0.11856 0.69218,0.31907 0.34014,1.7773 -0.60676,2.51328 -0.0684,5.59702 1.36405,7.81329 1.00955,1.56197 2.82924,3.39003 4.48353,4.50415 1.4393,0.96934 3.70801,1.95887 5.30882,2.31551 1.29182,0.28781 2.63156,0.48938 4.03328,0.60682 1.67304,0.14018 4.01418,0.0225 5.77899,-0.29049 1.67196,-0.29651 1.94719,-0.30313 2.80174,-0.0673 1.05994,0.29245 2.78596,0.61347 4.62644,0.86046 1.84202,0.24719 6.528085,0.28077 8.315125,0.0596 2.29024,-0.28348 4.86631,-0.77292 5.66943,-1.07717 0.22177,-0.084 0.4318,-0.12416 0.46675,-0.0892 0.0349,0.0349 0.22743,0.0826 0.42776,0.10594 0.20033,0.0233 0.78855,0.11712 1.30716,0.20844 3.00123,0.52844 5.8903,0.45898 9.36891,-0.22526 0.18293,-0.036 0.47795,-0.092 0.65561,-0.12448 0.99707,-0.18228 3.56406,-1.29449 4.84817,-2.10059 1.32283,-0.83041 3.39826,-2.7743 4.36349,-4.08694 1.33605,-1.81694 2.19373,-4.79226 1.99578,-6.9234 -0.21618,-2.32721 -1.29042,-4.86117 -2.872,-6.77451 -0.22683,-0.2744 -0.49042,-0.59408 -0.58576,-0.7104 -0.3679,-0.44883 -1.35618,-2.04132 -1.72643,-2.78195 -1.39251,-2.78541 -2.2345,-5.57824 -2.46385,-8.172499 -0.0726,-0.82146 -0.0642,-0.86659 0.21373,-1.14452 0.23107,-0.23108 0.35508,-0.27491 0.6158,-0.21765 0.57543,0.12639 4.7906,0.10213 5.54338,-0.0319 0.39635,-0.0706 0.91877,-0.15945 1.16094,-0.19753 0.63487,-0.0998 1.47088,-0.43268 2.22721,-0.88679 0.853,-0.51215 1.17085,-0.82287 1.55997,-1.52497 0.27508,-0.49633 0.31677,-0.68649 0.3081,-1.4055 -0.0117,-0.97223 -0.2486,-1.64079 -0.98435,-2.77813 -1.01496,-1.56899 -2.59572,-3.00699 -7.04358,-6.40751 -1.37199,-1.04893 -2.60371,-1.99906 -2.73714,-2.11141 -0.13343,-0.11235 -0.31761,-0.23306 -0.4093,-0.26824 -0.0917,-0.0352 -0.2474,-0.18715 -0.34604,-0.3377 -0.15765,-0.2406 -0.16423,-0.41247 -0.0543,-1.41953 0.15485,-1.41914 0.58503,-3.7835 0.95231,-5.23418 0.33304,-1.31538 0.43989,-2.347474 0.28427,-2.746024 -0.063,-0.16124 -0.27985,-0.3847 -0.48199,-0.49655 -0.3324,-0.18395 -0.73295,-0.20698 -4.19247,-0.24104 -2.10372,-0.0207 -4.04646,-0.005 -4.31718,0.0353 -0.3491,0.0518 -0.59894,0.17969 -0.85923,0.43998 -0.33305,0.33306 -0.367,0.42792 -0.367,1.02568 0,0.36227 0.0743,0.903594 0.1651,1.202924 0.0908,0.29934 0.16564,0.64877 0.16631,0.77652 0.001,0.28795 -0.32776,0.59924 -0.63382,0.59924 -0.12623,0 -0.87067,-0.35119 -1.65429,-0.78042 -4.13081,-2.262654 -7.02402,-3.568434 -10.01707,-4.520994 -3.86751,-1.23085 -5.2424,-1.21531 -9.312945,0.10523 -2.81566,0.91345 -6.1296,2.43594 -9.9227,4.558694 -0.91467,0.51188 -1.96237,1.09623 -2.32824,1.29856 -0.75555,0.41784 -4.73817,2.88743 -4.82277,2.99056 -0.0305,0.0372 -0.67906,0.48762 -1.44128,1.00099 -1.32061,0.88947 -2.56111,1.75965 -2.85018,1.99932 -0.0737,0.0611 -0.1859,0.11102 -0.24946,0.11102 -0.0635,0 -0.11554,0.0458 -0.11554,0.10183 0,0.056 -0.18709,0.21551 -0.41576,0.35447 -0.22866,0.13895 -0.4407,0.28241 -0.47119,0.31879 -0.0305,0.0364 -0.90358,0.70884 -1.94019,1.49435 -3.56353,2.70029 -4.72449,3.69837 -5.83272,5.01442 -0.64218,0.7626 -0.83005,0.92039 -1.09582,0.92039 -0.33224,0 -0.668786,-0.3362 -0.662846,-0.66216 0.002,-0.0931 0.14037,-0.35059 0.308176,-0.5721 0.55624,-0.73428 2.32983,-2.58898 2.79715,-2.92508 0.25299,-0.18195 0.94178,-0.70681 1.53064,-1.16635 0.58886,-0.45954 1.47672,-1.14357 1.97302,-1.52006 0.4963,-0.37649 0.97026,-0.75203 1.05325,-0.83452 0.25023,-0.24877 2.28851,-1.73397 3.5878,-2.61428 0.67075,-0.45446 1.23618,-0.86852 1.25651,-0.92015 0.0203,-0.0516 0.10763,-0.0939 0.19401,-0.0939 0.0864,0 0.15707,-0.0499 0.15707,-0.11087 0,-0.061 0.052,-0.11087 0.1155,-0.11087 0.0635,0 0.21015,-0.0873 0.32582,-0.19402 0.25423,-0.23453 4.77682,-3.06501 5.71187,-3.57479 0.36586,-0.19947 0.7151,-0.39922 0.77607,-0.44388 0.21528,-0.15769 3.1248,-1.750984 4.7119,-2.580304 2.41318,-1.26098 4.69492,-2.23889 7.04014,-3.01729 4.682125,-1.55402996 6.222105,-1.55480996 10.865095,-0.006 2.47653,0.82636 4.88451,1.87923 7.62348,3.33332 1.08777,0.57748 1.9917,1.049974 2.00872,1.049974 0.017,0 0.0365,-0.245784 0.0434,-0.546184 0.0209,-0.91683 0.21666,-1.41885 0.7798,-1.99962 0.83635,-0.86251 1.01884,-0.89112 5.68439,-0.89112 3.63923,0 4.0172,0.0178 4.67356,0.22057 0.85174,0.26308 1.41735,0.76092 1.6973,1.49395 0.25758,0.67448 0.17245,1.786764 -0.27432,3.583894 -0.42196,1.69737 -0.75877,3.54962 -0.84758,4.6613 l -0.0679,0.84995 1.20249,0.90661 c 0.66136,0.49863 1.90094,1.45979 2.75463,2.1359 0.85368,0.67611 1.92633,1.51226 2.38367,1.8581 1.90154,1.43799 3.7595,3.51378 4.59344,5.13198 1.16715,2.26474 0.90338,4.17672 -0.79753,5.78128 -1.69025,1.5945 -4.04609,2.26337 -7.92576,2.25026 l -2.18965,-0.007 v 0.30004 c 0,0.52733 0.33191,2.119569 0.6763,3.244359 0.78633,2.56817 2.10783,5.15101 3.63971,7.11375 0.85651,1.09741 1.40503,1.95826 1.99212,3.12643 2.09383,4.16622 1.65183,8.66844 -1.2441,12.6723 -0.73583,1.01734 -2.69469,2.83106 -4.0147,3.71722 -1.61237,1.08243 -4.42381,2.38957 -5.48406,2.54972 -0.15244,0.023 -0.37695,0.0648 -0.4989,0.0928 -2.73851,0.62924 -5.14459,0.83439 -7.60442,0.64836 -0.93969,-0.0711 -2.26721,-0.23027 -2.95006,-0.3538 l -1.24155,-0.22461 -1.08669,0.27167 c -2.80613,0.70155 -4.94876,0.95653 -8.40399,1.00011 -1.58541,0.02 -3.082135,0.016 -3.326045,-0.009 z m -25.11166,-26.08125 c 0,-4.50383 -0.0317,-8.420249 -0.0705,-8.703159 l -0.0705,-0.51438 h 0.99898 0.99898 l 0.0494,0.9409 c 0.0541,1.03102 0.1362,1.22445 0.37694,0.88825 0.99911,-1.39526 2.63473,-2.13484 4.4845,-2.02775 1.79797,0.10408 3.46348,1.34029 4.28525,3.18068 0.94854,2.124319 0.71741,5.293849 -0.52401,7.185889 -1.49878,2.28428 -4.39965,3.12374 -6.71084,1.94201 -0.4304,-0.22007 -1.37908,-1.09472 -1.37908,-1.27147 0,-0.0464 -0.0499,-0.0843 -0.11087,-0.0843 -0.0714,0 -0.11087,1.18259 -0.11087,3.32605 v 3.32604 h -1.10868 -1.10868 z m 7.18198,1.31586 c 1.56587,-0.6762 2.46713,-2.90054 2.13699,-5.27415 -0.32226,-2.316979 -1.61456,-3.644019 -3.55382,-3.649369 -1.0329,-0.003 -1.87789,0.36918 -2.53557,1.11635 -0.84674,0.961939 -0.94694,1.305349 -0.99142,3.397989 -0.047,2.21182 0.0595,2.6624 0.83295,3.52263 0.79079,0.87955 1.6494,1.24016 2.80491,1.17805 0.42731,-0.023 0.95889,-0.14163 1.30596,-0.2915 z m -72.5942448,2.6943 c -2.882281,-0.13507 -4.109116,-0.62914 -4.429851,-1.784 -0.164202,-0.59123 -0.15605,-9.606129 0.009,-9.926549 0.277813,-0.53941 0.563718,-0.74107 1.050648,-0.74107 0.40952,0 0.516298,0.0543 0.812186,0.41329 l 0.340676,0.41331 v 4.402919 c 0,2.68969 0.04136,4.42849 0.106305,4.46863 0.478379,0.29565 5.5123898,0.29657 6.7675268,10e-4 0.152444,-0.0359 0.392228,-0.0891 0.532856,-0.11827 0.544484,-0.11297 1.74092,-0.61901 2.37678,-1.00527 1.863186,-1.13183 2.946561,-3.10166 2.830993,-5.14742 -0.05513,-0.975869 -0.442851,-1.918309 -1.160325,-2.820399 -0.558067,-0.70167 -2.112875,-1.83734 -3.208449,-2.34353 -2.846228,-1.31504 -8.0236868,-1.51518 -11.9210658,-0.46084 -0.835184,0.22594 -0.85480597,0.22627 -1.27498397,0.0211 -0.560509,-0.27372 -0.718221,-0.79805 -0.425554,-1.4148 0.394194,-0.83071 1.90777297,-1.37418 4.54440497,-1.63173 1.615738,-0.15784 4.674828,-0.0697 6.1516428,0.17717 2.654616,0.44381 5.077063,1.29255 6.430589,2.25304 0.230232,0.16338 0.535316,0.37189 0.677963,0.46336 0.507677,0.32552 1.823779,1.74251 2.186058,2.35363 0.970799,1.6376 1.278954,3.727749 0.804539,5.456999 -1.148662,4.18692 -4.784298,6.52443 -10.784988,6.93417 -0.8719778,0.0595 -1.6103598,0.0994 -1.6408488,0.0885 -0.03049,-0.0109 -0.379724,-0.0349 -0.776078,-0.0535 z m 34.8110338,-0.2284 c -0.236127,-0.21318 -0.581699,-0.87178 -1.148934,-2.18965 -0.886815,-2.06036 -1.782846,-3.88352 -2.829315,-5.75684 -0.372141,-0.66618 -0.676621,-1.233 -0.676621,-1.25959 0,-0.0821 -1.114057,-1.897609 -1.255419,-2.045839 -0.07332,-0.0769 -0.226056,-0.28452 -0.339412,-0.46141 -0.113356,-0.1769 -0.561726,-0.69343 -0.996376,-1.14785 -2.04447,-2.13747 -2.947163,-1.91063 -5.661173,1.42263 -0.407316,0.50025 -1.725762,2.585569 -1.725762,2.729549 0,0.0794 -0.04989,0.14443 -0.110869,0.14443 -0.06098,0 -0.09839,0.0387 -0.08315,0.0859 0.01525,0.0472 -0.279303,0.63346 -0.654551,1.3027 -0.881846,1.57273 -1.870112,3.56218 -2.532043,5.09718 -0.663068,1.53764 -0.886184,1.90499 -1.28105,2.10919 -0.427657,0.22115 -0.756731,0.20521 -1.18765,-0.0575 -0.947926,-0.57795 -1.034493,-1.44502 -0.307884,-3.08383 0.554898,-1.25153 2.218815,-4.56829 2.689917,-5.36194 0.169144,-0.28495 0.656771,-1.09879 1.083613,-1.808529 0.426843,-0.70974 0.868151,-1.44947 0.980684,-1.64384 0.758311,-1.30976 3.112548,-3.89382 4.320152,-4.74189 1.925365,-1.35213 3.415351,-1.12485 5.488058,0.83714 1.041572,0.98593 2.681599,2.89781 2.681599,3.1261 0,0.0814 0.04989,0.14808 0.110868,0.14808 0.06098,0 0.110868,0.0526 0.110868,0.11695 0,0.0643 0.191321,0.40109 0.425159,0.74836 2.02891,3.013169 5.118254,9.225649 5.118254,10.292499 0,1.28884 -1.37816,2.15713 -2.218962,1.39802 z m 9.924309,0.23038 c -0.7778,-0.17115 -1.72265,-0.74573 -2.631631,-1.60034 -1.149711,-1.08093 -3.374889,-4.31548 -4.827358,-7.01712 -1.084809,-2.017769 -2.918872,-6.243539 -3.07803,-7.091919 -0.165238,-0.8808 0.568268,-1.95503 1.334928,-1.95503 0.410271,0 0.985255,0.47516 1.108694,0.91621 0.03816,0.13635 0.116136,0.36016 0.173281,0.49736 0.05715,0.1372 0.150656,0.36171 0.207801,0.49891 0.05714,0.13719 0.138891,0.37418 0.181657,0.52662 0.04277,0.15244 0.472817,1.15026 0.955668,2.21736 2.358495,5.212319 4.87244,9.031079 6.38191,9.694349 0.40954,0.17995 0.53225,0.18945 0.92549,0.0716 0.87945,-0.26349 2.02234,-1.59574 3.50578,-4.08665 0.99975,-1.67872 2.56688,-4.879719 3.29611,-6.732569 0.28799,-0.73173 0.59396,-1.49426 0.67993,-1.69451 0.086,-0.20024 0.15681,-0.42475 0.1574,-0.4989 5.6e-4,-0.0742 0.12286,-0.39638 0.27169,-0.71607 0.30228,-0.64927 0.82331,-0.99833 1.308426,-0.87658 0.41563,0.10432 0.9284,0.6959 1.08357,1.25012 0.12569,0.44892 0.11218,0.57516 -0.14442,1.34929 -0.1557,0.46972 -0.61153,1.65229 -1.01296,2.62793 -2.351686,5.715549 -5.471506,10.563449 -7.748176,12.039909 -0.53381,0.34618 -1.52216,0.69266 -1.83033,0.64165 -0.0427,-0.007 -0.17748,-0.0348 -0.29943,-0.0617 z m 13.917792,-0.0703 c -0.21952,-0.0756 -0.49276,-0.2938 -0.63749,-0.50905 l -0.25329,-0.37672 v -7.7926 c 0,-4.285919 0.0444,-7.908099 0.0986,-8.049269 0.20249,-0.52721 0.63726,-0.86644 1.11047,-0.86644 0.6424,0 0.9753,0.19437 1.22842,0.71726 0.21741,0.4491 0.22337,0.66865 0.22296,8.214919 -4.4e-4,7.58122 -0.005,7.76165 -0.22416,8.12048 -0.12306,0.20185 -0.39567,0.43883 -0.6058,0.52663 -0.44671,0.18664 -0.44097,0.18655 -0.93968,0.0148 z m 28.90146,-0.64139 c -0.23065,-0.0543 -0.57312,-0.17826 -0.76104,-0.27544 -0.45769,-0.23668 -1.31414,-1.0352 -1.31414,-1.22525 0,-0.0837 -0.0465,-0.15218 -0.1033,-0.15218 -0.18853,0 -0.48264,-1.63824 -0.40466,-2.25397 0.13125,-1.03633 0.38357,-1.60273 0.99016,-2.22269 1.0394,-1.06231 2.79364,-1.6933 5.0335,-1.81051 l 1.24726,-0.0653 -6.6e-4,-0.51015 c -0.001,-1.238289 -0.59205,-2.104639 -1.64287,-2.410119 -0.8364,-0.24315 -2.04138,-0.15391 -3.12385,0.23135 -1.21042,0.43079 -1.21946,0.42944 -1.44886,-0.21614 -0.10834,-0.30489 -0.20084,-0.60932 -0.20557,-0.67652 -0.0137,-0.19471 1.4092,-0.78941 2.34269,-0.97913 2.48483,-0.50501 4.550935,0.0895 5.511085,1.58574 0.77087,1.20131 0.87924,2.040709 0.91079,7.054609 l 0.0237,3.76952 h -0.9338 -0.93381 l -0.0806,-0.38804 c -0.0443,-0.21342 -0.10882,-0.57444 -0.14332,-0.80226 l -0.0627,-0.41422 -0.333395,0.37972 c -1.027,1.16968 -2.96939,1.75706 -4.56666,1.38095 z m 3.11622,-1.86471 c 0.66466,-0.33908 1.05116,-0.71147 1.35039,-1.30108 0.23684,-0.46669 0.278595,-0.72065 0.314425,-1.91254 l 0.0413,-1.3744 -1.203685,0.0617 c -2.52273,0.12928 -3.88352,0.96776 -4.00807,2.46966 -0.0895,1.07892 0.37362,1.89051 1.26944,2.22471 0.55583,0.20737 1.66348,0.12414 2.23618,-0.16803 z m 10.101635,1.8344 c -0.86537,-0.23336 -1.48698,-0.78271 -1.90027,-1.67938 -0.24969,-0.54172 -0.25556,-0.63917 -0.28864,-4.79367 l -0.0338,-4.240709 h -0.93633 -0.93633 v -0.88695 -0.88694 h 0.94238 0.94238 v -1.43702 -1.43701 l 0.47119,-0.12301 c 0.25916,-0.0676 0.71723,-0.1943 1.01794,-0.28144 0.30071,-0.0871 0.58758,-0.15844 0.63749,-0.15844 0.0499,0 0.0907,0.77331 0.0907,1.71846 v 1.71846 h 1.55215 1.55216 v 0.88694 0.88695 h -1.55216 -1.55215 l 0.008,3.852669 c 0.009,4.16519 0.0421,4.43611 0.59038,4.84437 0.25515,0.19 0.468,0.22745 1.2813,0.22542 l 0.97532,-0.002 0.0716,0.77037 c 0.0394,0.4237 0.033,0.80741 -0.0141,0.85269 -0.12955,0.12437 -1.33428,0.32299 -1.90772,0.31451 -0.27844,-0.004 -0.73382,-0.0688 -1.01195,-0.14385 z m 7.26866,0.003 c -1.06832,-0.35512 -1.80292,-0.99243 -2.25757,-1.95857 -0.23679,-0.50321 -0.28629,-0.76747 -0.28324,-1.5121 0.003,-0.78636 0.0492,-0.99471 0.35758,-1.62118 0.84624,-1.71896 2.78799,-2.67756 5.71711,-2.82241 l 1.31653,-0.0651 -0.057,-0.70962 c -0.0771,-0.960059 -0.49276,-1.635739 -1.24405,-2.022109 -0.48607,-0.24998 -0.68127,-0.28256 -1.66204,-0.27738 -0.92434,0.005 -1.25114,0.0568 -1.94278,0.30886 -0.45734,0.16665 -0.90988,0.32963 -1.00565,0.36218 -0.13345,0.0454 -0.22187,-0.0985 -0.37852,-0.61592 -0.20019,-0.66115 -0.20003,-0.6784 0.008,-0.83396 0.34235,-0.25623 1.63998,-0.70525 2.4415,-0.84482 0.97723,-0.17018 2.61458,-0.0745 3.27819,0.19155 1.23438,0.49489 2.00358,1.34668 2.43505,2.69653 0.24381,0.762749 0.23528,0.58023 0.35378,7.571459 l 0.0352,2.07878 h -0.92075 c -1.03458,0 -0.955,0.0766 -1.08459,-1.04449 -0.0347,-0.30007 -0.0778,-0.56034 -0.0959,-0.57838 -0.018,-0.018 -0.34171,0.26116 -0.71928,0.62044 -0.86605,0.82411 -1.59764,1.12143 -2.90561,1.18085 -0.59906,0.0272 -1.10395,-0.0109 -1.38585,-0.10461 z m 3.23262,-1.88389 c 0.71621,-0.36293 1.32593,-1.06922 1.53721,-1.7807 0.0959,-0.323 0.16381,-1.00272 0.16381,-1.64015 v -1.08856 l -0.91467,0.002 c -2.24682,0.005 -3.91863,0.77742 -4.27814,1.97731 -0.2625,0.87618 -0.0448,1.88656 0.51335,2.38288 0.65691,0.58412 1.98663,0.64988 2.97844,0.1473 z m -31.370935,1.73991 c -0.0427,-0.0427 -0.0777,-4.11049 -0.0777,-9.039509 v -8.96185 h 1.16477 1.16477 l -0.0284,9.00804 -0.0284,9.008049 -1.05874,0.0315 c -0.58231,0.0173 -1.09369,-0.003 -1.1364,-0.0462 z"
       id="path179" /></g></svg>
